<svg xmlns="http://www.w3.org/2000/svg" width="16" height="20" viewBox="0 0 16 20" fill="none"><path d="M12.6406 20H3.36058C2.34976 19.9632 1.40815 19.477 0.792929 18.6741C0.177708 17.8713 -0.046851 16.8356 0.180583 15.85L0.420583 14.71C0.696618 13.1668 2.0232 12.0327 3.59058 12H12.4106C13.978 12.0327 15.3045 13.1668 15.5806 14.71L15.8206 15.85C16.048 16.8356 15.8235 17.8713 15.2082 18.6741C14.593 19.477 13.6514 19.9632 12.6406 20Z" fill="#f9d525"></path><path d="M8.50001 10H7.50001C5.29088 10 3.50001 8.20915 3.50001 6.00001V3.36001C3.49735 2.46807 3.85049 1.61189 4.48119 0.981192C5.11189 0.350491 5.96807 -0.00265152 6.86001 1.49917e-05H9.14002C10.032 -0.00265152 10.8881 0.350491 11.5188 0.981192C12.1495 1.61189 12.5027 2.46807 12.5 3.36001V6.00001C12.5 7.06088 12.0786 8.0783 11.3284 8.82844C10.5783 9.57859 9.56088 10 8.50001 10Z" fill="#f9d525"></path></svg>